<svg id="圖層_1" data-name="圖層 1" xmlns="http://www.w3.org/2000/svg" viewBox="0 0 37 36"><title>未命名-1</title><rect x="9" y="9" width="19" height="19" rx="2" ry="2"/><rect x="13.75" width="2" height="7" rx="1" ry="1"/><rect x="17.75" width="2" height="7" rx="1" ry="1"/><rect x="21.75" width="2" height="7" rx="1" ry="1"/><rect x="33.5" y="11.5" width="2" height="7" rx="1" ry="1" transform="translate(48.5 -20.5) rotate(90)"/><rect x="33.5" y="15.5" width="2" height="7" rx="1" ry="1" transform="translate(52.5 -16.5) rotate(90)"/><rect x="33.5" y="19.5" width="2" height="7" rx="1" ry="1" transform="translate(56.5 -12.5) rotate(90)"/><rect x="3.5" y="11.5" width="2" height="7" rx="1" ry="1" transform="translate(18.5 9.5) rotate(90)"/><rect x="3.5" y="15.5" width="2" height="7" rx="1" ry="1" transform="translate(22.5 13.5) rotate(90)"/><rect x="3.5" y="19.5" width="2" height="7" rx="1" ry="1" transform="translate(26.5 17.5) rotate(90)"/><rect x="23" y="30" width="2" height="7" rx="1" ry="1" transform="translate(47 66) rotate(180)"/><rect x="19" y="30" width="2" height="7" rx="1" ry="1" transform="translate(39 66) rotate(180)"/><rect x="15" y="30" width="2" height="7" rx="1" ry="1" transform="translate(31 66) rotate(180)"/></svg>