<?xml version="1.0" encoding="utf-8"?>
<!-- Generator: Adobe Illustrator 22.0.1, SVG Export Plug-In . SVG Version: 6.00 Build 0)  -->
<svg version="1.1" id="圖層_1" xmlns="http://www.w3.org/2000/svg" xmlns:xlink="http://www.w3.org/1999/xlink" x="0px" y="0px"
	 viewBox="0 0 37 36" style="enable-background:new 0 0 37 36;" xml:space="preserve">
<title>未命名-1</title>
<path d="M11,8.7h15c1.1,0,2,0.5,2,1.2v9.2c0,0.7-0.9,1.2-2,1.2H11c-1.1,0-2-0.5-2-1.2V9.9C9,9.2,9.9,8.7,11,8.7z"/>
<path d="M13.1,5.6L13.1,5.6c0.6,0,1,0.4,1,1v5c0,0.6-0.4,1-1,1l0,0c-0.6,0-1-0.4-1-1v-5C12.1,6.1,12.6,5.6,13.1,5.6z"/>
<path d="M17.1,5.6L17.1,5.6c0.6,0,1,0.4,1,1v5c0,0.6-0.4,1-1,1l0,0c-0.6,0-1-0.4-1-1v-5C16.1,6.1,16.6,5.6,17.1,5.6z"/>
<path d="M21.1,5.6L21.1,5.6c0.6,0,1,0.4,1,1v5c0,0.6-0.4,1-1,1l0,0c-0.6,0-1-0.4-1-1v-5C20.1,6.1,20.6,5.6,21.1,5.6z"/>
<path d="M24.4,5.6L24.4,5.6c0.6,0,1,0.4,1,1v5c0,0.6-0.4,1-1,1l0,0c-0.6,0-1-0.4-1-1v-5C23.4,6.1,23.8,5.6,24.4,5.6z"/>
<path d="M13.1,16.1L13.1,16.1c0.6,0,1,0.4,1,1v5c0,0.6-0.4,1-1,1l0,0c-0.6,0-1-0.4-1-1v-5C12.1,16.6,12.6,16.1,13.1,16.1z"/>
<path d="M17.1,16.1L17.1,16.1c0.6,0,1,0.4,1,1v5c0,0.6-0.4,1-1,1l0,0c-0.6,0-1-0.4-1-1v-5C16.1,16.6,16.6,16.1,17.1,16.1z"/>
<path d="M21.1,16.1L21.1,16.1c0.6,0,1,0.4,1,1v5c0,0.6-0.4,1-1,1l0,0c-0.6,0-1-0.4-1-1v-5C20.1,16.6,20.6,16.1,21.1,16.1z"/>
<path d="M24.4,16.1L24.4,16.1c0.6,0,1,0.4,1,1v5c0,0.6-0.4,1-1,1l0,0c-0.6,0-1-0.4-1-1v-5C23.4,16.6,23.8,16.1,24.4,16.1z"/>
</svg>
