<svg id="圖層_1" data-name="圖層 1" xmlns="http://www.w3.org/2000/svg" viewBox="0 0 33.67 33.67">

<title>螢幕快照 2018-05-31 上午9.43.40</title>
<path d="M18,6a12.5,12.5,0,1,0,12.5,12.5A12.5,12.5,0,0,0,18,6Zm0,20.21a7.72,7.72,0,1,1,7.72-7.71A7.71,7.71,0,0,1,18,26.16Z" transform="translate(-1.27 -1.12)"/>
<rect x="14.75" width="3.92" height="6.33"/><rect x="6.39" y="5.21" width="3.92" height="6.33" transform="translate(-4.75 7.24) rotate(-45)"/>
<rect x="2.48" y="14.92" width="3.92" height="6.33" transform="translate(-14.92 21.4) rotate(-90)"/>
<rect x="6.57" y="24.54" width="3.92" height="6.33" transform="translate(-6.3 52.21) rotate(-135)"/>
<rect x="16.27" y="28.45" width="3.92" height="6.33" transform="translate(35.2 62.12) rotate(-180)"/>
<rect x="25.9" y="24.36" width="3.92" height="6.33" transform="translate(65.75 26.17) rotate(135)"/>
<rect x="29.81" y="14.66" width="3.92" height="6.33" transform="translate(48.32 -15.07) rotate(90)"/>
<rect x="25.72" y="5.03" width="3.92" height="6.33" transform="translate(12.63 -18.29) rotate(45)"/>
</svg>